<svg xmlns="http://www.w3.org/2000/svg" xmlns:xlink="http://www.w3.org/1999/xlink" viewBox="0 0 671.09 778.66"><defs><style>.cls-1,.cls-2,.cls-3{fill:none;}.cls-2,.cls-3,.cls-5,.cls-7{stroke:#231f20;stroke-miterlimit:10;stroke-width:20px;}.cls-2,.cls-5{stroke-linecap:round;}.cls-4{clip-path:url(#clip-path);}.cls-5,.cls-7{fill:#707071;}.cls-6{clip-path:url(#clip-path-2);}.cls-8{fill:#4465af;}.cls-9{fill:#ffcd34;}</style><clipPath id="clip-path" transform="translate(-60.45 -50.64)"><rect class="cls-1" x="297.54" y="590.63" width="59.94" height="238.68"/></clipPath><clipPath id="clip-path-2" transform="translate(-60.45 -50.64)"><rect class="cls-1" x="431.66" y="590.63" width="59.94" height="238.68"/></clipPath></defs><g id="Rays"><line class="cls-2" x1="158.1" y1="414.58" x2="10" y2="449.58"/><path class="cls-3" d="M193.17,864.36" transform="translate(-60.45 -50.64)"/><path class="cls-3" d="M304.94,611.38" transform="translate(-60.45 -50.64)"/><path class="cls-3" d="M607.09,864.36" transform="translate(-60.45 -50.64)"/><path class="cls-3" d="M484.2,611.38" transform="translate(-60.45 -50.64)"/><line class="cls-2" x1="517.65" y1="416.41" x2="661.09" y2="449.85"/><line class="cls-2" x1="482.84" y1="255.82" x2="627.41" y2="142.67"/><line class="cls-2" x1="333.36" y1="231.65" x2="334.88" y2="10"/><line class="cls-2" x1="185.17" y1="255.82" x2="43.09" y2="142.67"/></g><g id="Layer_1" data-name="Layer 1"><g id="_Mirror_Repeat_" data-name="&lt;Mirror Repeat&gt;"><g class="cls-4"><line class="cls-5" x1="247.09" y1="549.98" x2="287.03" y2="768.66"/></g></g><g id="_Mirror_Repeat_2" data-name="&lt;Mirror Repeat&gt;"><g class="cls-6"><line class="cls-5" x1="421.14" y1="549.98" x2="381.2" y2="768.66"/></g></g><line class="cls-7" x1="255.76" y1="637.08" x2="412.47" y2="613"/><line class="cls-7" x1="275.23" y1="717.69" x2="399.64" y2="699.42"/><circle class="cls-8" cx="334.12" cy="377.17" r="199.77"/></g><g id="Continents"><path class="cls-9" d="M194.8,427.81c0,5,58.39,8.55,84.1-14.49C290,403.4,278.46,375.09,308,312.4c23.26-49.32,35.1-77.79,30.3-76.32C214.94,273.76,194.8,380.68,194.8,427.81Z" transform="translate(-60.45 -50.64)"/><path class="cls-9" d="M269.8,583.78C254.91,539,266,527,255,513.51c-9.83-12-29.57-31.87-30.65-46.79-.93-12.87,11.45-23.33,22.52-30.76,21.56-14.49,33.06,12.22,84.58,12.72,15.55.15,21.71,4.27,25.23,8.73,9.44,12,1.5,34.19-5.82,46.58-6.93,11.71-13.69,15.29-20.38,22.32-10.67,11.2-37.1,35.48-35.31,75C289.17,598.76,277.24,589.76,269.8,583.78Z" transform="translate(-60.45 -50.64)"/><path class="cls-9" d="M585.42,368.63c-3.91-10.49-6.18-17.17-76-23.07-28.67-2.42-53.5.25-65.57,6.55-21.1,11-30,53.59-20.21,70.08,23.29,39.35,75.95,20.42,85.42,36.6,9.15,15.64,11.56,28.42,16.33,69,1.38,11.76,6.89,45,12.74,38.86C591.58,510.87,593.33,448,593.33,448,594.35,435,597.3,400.45,585.42,368.63Z" transform="translate(-60.45 -50.64)"/><path class="cls-9" d="M449,235.56c-9.47-2.32.09,18.61-10.91,38.6-5.53,10-8.73,8.85-20.8,25-11.55,15.49-18.89,25.34-15.7,33.94,2.83,7.61,13.15,12.29,22.07,12.31,17.88,0,23.47-18.69,40.74-29.7,37.2-23.73,87,9.84,96.56,1.53,1.52-1.32-20.84-30.63-48.87-51C489.79,250.06,469.23,240.51,449,235.56Z" transform="translate(-60.45 -50.64)"/></g></svg>